<svg width="10" height="12" viewBox="0 0 10 12" fill="none" xmlns="http://www.w3.org/2000/svg">
<path d="M5 6C6.57812 6 7.85714 4.65703 7.85714 3C7.85714 1.34297 6.57812 0 5 0C3.42188 0 2.14286 1.34297 2.14286 3C2.14286 4.65703 3.42188 6 5 6ZM7 6.75H6.62723C6.1317 6.98906 5.58036 7.125 5 7.125C4.41964 7.125 3.87054 6.98906 3.37277 6.75H3C1.34375 6.75 0 8.16094 0 9.9V10.875C0 11.4961 0.479911 12 1.07143 12H8.92857C9.52009 12 10 11.4961 10 10.875V9.9C10 8.16094 8.65625 6.75 7 6.75Z" fill="#222222"/>
</svg>
